<svg xmlns="http://www.w3.org/2000/svg" viewBox="0 0 50 50">
  <path class="primary-gradient" d="M 1 2 C 0.457031 2.011719 0 2.453125 0 3 C 0 3.550781 0.449219 4 1 4 C 2.507813 4 3.660156 4.429688 4.46875 5.28125 C 6.542969 7.464844 6.285156 12.1875 6.09375 16 C 6.042969 17.03125 6 18.015625 6 18.875 C 6 27.976563 10.953125 33.273438 20 33.9375 L 20 27.90625 C 13.410156 27.382813 11 24.042969 11 15.875 C 11 9.015625 9.796875 2.003906 1 2 Z M 21 2 C 20.449219 2 20 2.449219 20 3 C 20 3.550781 20.449219 4 21 4 L 22 4 L 22 46 L 21 46 C 20.449219 46 20 46.445313 20 47 C 20 47.554688 20.449219 48 21 48 L 29 48 C 29.554688 48 30 47.554688 30 47 C 30 46.445313 29.554688 46 29 46 L 28 46 L 28 4 L 29 4 C 29.554688 4 30 3.550781 30 3 C 30 2.449219 29.554688 2 29 2 Z M 49 2 C 40.203125 2.003906 39 9.015625 39 15.875 C 39 24.042969 36.589844 27.382813 30 27.90625 L 30 33.9375 C 39.046875 33.273438 44 27.976563 44 18.875 C 44 18.015625 43.960938 17.03125 43.90625 16 C 43.714844 12.1875 43.453125 7.464844 45.53125 5.28125 C 46.339844 4.429688 47.492188 4 49 4 C 49.554688 4 50 3.550781 50 3 C 50 2.449219 49.554688 2 49 2 Z"/>
</svg>
