<svg width="26" height="26" viewBox="0 0 26 26" fill="none" xmlns="http://www.w3.org/2000/svg">
<path class="primary-gradient" d="M13 26C20.1797 26 26 20.1797 26 13C26 5.8203 20.1797 0 13 0C5.8203 0 0 5.8203 0 13C0 20.1797 5.8203 26 13 26Z"/>
<path  class="secondary-gradient" d="M9.70711 15.7071C9.31658 16.0976 8.68342 16.0976 8.29289 15.7071C7.90237 15.3166 7.90237 14.6834 8.29289 14.2929L12.2929 10.2929C12.6834 9.90237 13.3166 9.90237 13.7071 10.2929L17.7071 14.2929C18.0976 14.6834 18.0976 15.3166 17.7071 15.7071C17.3166 16.0976 16.6834 16.0976 16.2929 15.7071L13 12.4142L9.70711 15.7071Z"/>
</svg>
