<svg width="345" height="345" viewBox="0 0 345 345" fill="none" xmlns="http://www.w3.org/2000/svg">
<path d="M163.67 259C148.67 276.33 125.54 265.16 125.54 265.16C113.22 277.49 103.97 265.93 103.97 265.93C115.91 273.63 124.38 259 124.38 259C125.92 249 133.24 250.52 133.24 250.52C132.15 250.722 131.138 251.227 130.321 251.977C129.504 252.727 128.915 253.691 128.62 254.76C124.77 261.31 133.62 262.46 133.62 262.46C149.51 267.15 162.69 251.2 164.27 249.19C166.55 243.32 167.89 239.5 165.08 234.01C165.08 234.01 158.66 225.88 152.88 228.58C152.88 228.58 146.72 228.19 144.02 231.27C144.02 231.27 135.55 236.27 127.07 233.2C127.07 233.2 116.44 230.81 106.83 243.8C108.99 246.8 114.36 247.8 114.36 247.8C108.75 248.73 105.71 247.96 104.17 247.22C101.37 249.93 92.67 257.33 83.17 255.12C79.6838 255.313 76.2508 254.2 73.54 252C67.08 255.93 59.85 254.1 57.3 253.24L56.63 253L56.34 252.88C56.4344 252.925 56.5312 252.965 56.63 253C56.8455 253.101 57.0697 253.181 57.3 253.24C61.3 254.24 69.14 250.24 71.06 249.24C69.66 247.38 65.81 242.78 61.23 241.55C61.23 241.55 36.79 238.49 45.73 216.77C45.79 216.61 45.83 216.51 45.83 216.51L45.73 216.77C44.98 218.77 40.63 233.11 62.73 238.47C67.6508 240.281 71.9337 243.493 75.05 247.71C75.05 247.71 87.76 255.41 100.47 242.32C100.47 242.32 110.87 224.6 127.47 228.07C127.47 228.07 139.79 228.84 146.34 224.22C146.34 224.22 160.21 223.06 163.67 217.29C163.67 217.29 164.2 216.05 163.75 217.15C166.75 211.15 168.75 202.79 165.47 187.37C165.47 187.37 165.62 183.69 164.08 182.66C163.97 182.59 163.88 182.59 163.95 182.59C165.06 183.75 163.95 182.49 163.95 182.49C162.277 184.966 160.019 186.991 157.376 188.387C154.734 189.782 151.788 190.504 148.8 190.49C155.22 189.49 160.87 178.68 160.87 178.68C164.421 171.855 166.788 164.477 167.87 156.86H167.82C162.68 141.2 141.63 143.51 141.63 143.51C126.74 145.57 122.11 163.51 122.11 163.51C116.98 167.62 116.72 176.09 116.72 176.09C112.87 187.09 123.14 193.03 123.14 193.03C111.59 191.23 113.14 175.32 113.14 175.32C112.88 169.16 103.89 170.44 103.89 170.44C88.48 166.84 86.43 182.51 86.43 182.51C85.43 188.16 84.63 188.41 84.63 188.41C81.81 194.06 76.16 190.21 76.16 190.21C72.05 187.39 67.16 189.7 67.16 189.7C62.54 188.41 62.54 198.7 62.54 198.7C56.89 192.8 64.6 186.12 64.6 186.12C56.38 181.24 59.98 173.54 59.98 173.54C62.81 188.43 75.64 185.09 75.64 185.09C80.52 186.89 82.32 183.55 82.32 183.55C82.3675 180.64 83.1987 177.796 84.7262 175.318C86.2538 172.84 88.4211 170.82 91 169.47C100.5 162.54 112.82 167.41 112.82 167.41C121.55 162.53 121.55 148.67 121.55 148.67C121.29 143.53 111.55 141.73 111.55 141.73C105.9 141.99 99.74 133.26 99.74 133.26C97.43 135.06 90.24 133.26 90.24 133.26C84.33 129.66 78.17 133.52 78.17 133.52C63.28 136.35 69.17 150.21 69.17 150.21C71.74 158.43 86.89 157.92 86.89 157.92C98.96 163.05 109.74 155.1 109.74 155.1C100.74 167.16 77.13 159.72 77.13 159.72C71.99 156.38 65.58 157.41 65.58 157.41C46.84 158.7 40.93 177.69 40.93 177.69C40.16 162.03 63.27 152.78 63.27 152.78C51.97 149.7 52.48 135.83 52.48 135.83C52.08 134.64 48.48 134.74 46.85 134.83C46.85 134.94 46.85 134.72 46.85 134.83C46.85 134.94 25.26 137.12 31.42 174.09C31.42 174.09 31.42 174.09 31.48 174.09C32.98 177.89 35.48 184.17 40.02 185.95C40.02 185.95 37.9 204.44 46.95 209.45C46.95 209.45 64.86 222.35 86.62 213.45C86.62 213.45 98.56 201.51 107.8 199.78C107.8 199.78 98.36 190.34 104.91 182.25C104.91 182.25 102.21 195.92 115.31 200.16C115.31 200.16 131.31 204.16 134.95 195.16C136.387 193.154 137.006 190.676 136.68 188.23C136.68 188.23 135.53 179.95 138.99 175.13C140.892 171.451 141.373 167.201 140.34 163.19C140.34 163.19 144.77 167.43 141.69 177.05C141.69 177.05 138.8 182.83 141.5 191.11C141.5 191.11 141.89 195.11 136.88 200.74C136.88 200.74 133.22 205.36 132.26 205.94C132.26 205.94 127.64 219.23 114.35 214.8C114.35 214.8 126.29 213.45 126.48 205.36C124.399 206.248 122.15 206.674 119.888 206.608C117.627 206.543 115.406 205.987 113.38 204.98C113.38 204.98 112.38 202.48 104.33 210.56C104.33 210.56 100.67 214.41 94.12 220.19C94.12 220.19 89.88 226.19 79.12 223.46C79.12 223.46 47.92 225 39.06 204.59C39.06 204.59 35.06 193.42 36.94 187.07C36.94 187.07 30.01 181.48 28.85 177.83C28.85 177.83 28.29 178.22 28.85 177.83C28.63 177.98 28.85 177.78 28.85 177.78C25.74 180.59 9.15001 206.78 39.62 234.64C39.62 234.64 30.38 260.32 71.46 270.59C71.46 270.59 86.09 278.94 97.91 269.44C97.91 269.44 90.54 280.01 77.54 276.38C84.73 281.38 98.61 286.53 120.76 276.75C120.76 276.75 156.71 283.94 163.9 263.4" fill="#004E55"/>
<path d="M52.75 132C54 121.71 63 115 63 115C71 107.81 76.1 111.15 76.1 111.15C59.92 114.74 56.58 132.46 56.58 132.46C54.52 144.53 63.77 146.32 63.77 146.32C60.43 133.23 73.01 129.12 73.01 129.12C79.68 123.98 87.9 127.06 87.9 127.06C94.83 130.66 98.9 127.06 98.9 127.06C101.47 123.47 99.16 118.33 99.16 118.33C91.46 120.39 85.04 115.25 85.04 115.25C79.91 112.17 82.22 105.25 82.22 105.25C84.53 118.6 99.17 113.47 99.17 113.47C100.97 109.36 96.09 106.28 96.09 106.28C88.09 102.17 92.24 95.28 92.24 95.28C92.5807 93.7036 92.5493 92.0694 92.1483 90.5071C91.7473 88.9449 90.9878 87.4976 89.93 86.28C95.58 86.79 95.83 97.06 95.83 97.06C95.8041 98.5532 96.2668 100.014 97.1477 101.22C98.0287 102.426 99.2796 103.311 100.71 103.74C105.59 105.79 103.28 114.26 103.28 114.26C105.59 117.09 103.54 126.07 103.54 126.07C103.03 134.07 113.04 135.57 113.04 135.57C122.04 136.57 128.45 143.57 128.45 143.57C136.92 135.87 150.27 137.92 150.27 137.92C161.47 136.26 166.97 146.32 168.67 150.25C168.846 146.649 168.278 143.051 167 139.68C167 139.68 175.51 118.35 161.13 110.68C161.13 110.68 145.47 110.94 138.27 123C138.27 123 113.11 125.83 117.22 110.68C117.22 110.68 120.04 105.8 115.93 102.46C115.93 102.46 123.63 104.77 120.55 111.19C120.55 111.19 117.47 120.19 135.44 120.19C135.44 120.19 143.66 105.3 157.78 107.87C157.78 107.87 168.05 94 157.27 81.17C157.27 81.17 147.8 64.04 121.01 76.01C121.01 76.06 121.07 76.01 121.07 76.01C112.85 90.65 121.84 91.16 121.84 91.16C125.95 79.86 134.93 83.16 134.93 83.16C127.74 83.41 125.17 92.16 125.17 92.16C133.9 101.41 144.94 93.45 144.94 93.45C152.13 86.77 147.51 81.64 147.51 81.64C155.72 85.49 146.74 95.25 146.74 95.25C138.26 106.03 122.61 95.25 122.61 95.25C108.74 96.02 116.7 77.53 116.7 77.53C116.7 77.53 85.89 69.31 77.7 97.05C77.7 97.05 51.16 99.6 47.64 130.73L52.75 132Z" fill="#004E55"/>
<path d="M179.92 259C194.92 276.33 218.05 265.16 218.05 265.16C230.37 277.49 239.62 265.93 239.62 265.93C227.68 273.63 219.21 259 219.21 259C217.67 249 210.35 250.52 210.35 250.52C211.44 250.722 212.452 251.227 213.269 251.977C214.086 252.727 214.675 253.691 214.97 254.76C218.82 261.31 209.97 262.46 209.97 262.46C194.08 267.15 180.9 251.2 179.32 249.19C177.04 243.32 175.7 239.5 178.52 234.01C178.52 234.01 184.94 225.88 190.72 228.58C190.72 228.58 196.88 228.19 199.58 231.27C199.58 231.27 208.05 236.27 216.53 233.2C216.53 233.2 227.16 230.81 236.77 243.8C234.61 246.8 229.24 247.8 229.24 247.8C234.85 248.73 237.89 247.96 239.43 247.22C242.23 249.93 250.93 257.33 260.43 255.12C263.912 255.332 267.348 254.241 270.07 252.06C276.53 255.99 283.76 254.16 286.31 253.3L287 253L287.29 252.88C287.196 252.925 287.099 252.965 287 253C286.785 253.101 286.56 253.181 286.33 253.24C282.33 254.24 274.49 250.24 272.57 249.24C273.97 247.38 277.82 242.78 282.4 241.55C282.4 241.55 306.84 238.49 297.9 216.77C297.84 216.61 297.8 216.51 297.8 216.51C297.8 216.51 297.86 216.68 297.9 216.77C298.65 218.77 303 233.11 280.9 238.47C275.979 240.281 271.696 243.493 268.58 247.71C268.58 247.71 255.87 255.41 243.16 242.32C243.16 242.32 232.76 224.6 216.16 228.07C216.16 228.07 203.83 228.84 197.29 224.22C197.29 224.22 183.43 223.06 179.96 217.29C179.96 217.29 179.43 216.05 179.88 217.15C176.88 211.15 174.88 202.79 178.16 187.37C178.16 187.37 178.01 183.69 179.55 182.66C179.66 182.59 179.75 182.59 179.69 182.59C178.58 183.75 179.69 182.49 179.69 182.49C181.363 184.966 183.621 186.991 186.264 188.387C188.906 189.782 191.852 190.504 194.84 190.49C188.42 189.49 182.77 178.68 182.77 178.68C179.219 171.855 176.852 164.477 175.77 156.86H175.83C180.97 141.2 202.02 143.51 202.02 143.51C216.91 145.57 221.53 163.51 221.53 163.51C226.66 167.62 226.92 176.09 226.92 176.09C230.77 187.09 220.5 193.03 220.5 193.03C232.05 191.23 230.5 175.32 230.5 175.32C230.76 169.16 239.74 170.44 239.74 170.44C255.15 166.84 257.2 182.51 257.2 182.51C258.2 188.16 259 188.41 259 188.41C261.82 194.06 267.47 190.21 267.47 190.21C271.58 187.39 276.47 189.7 276.47 189.7C281.09 188.41 281.09 198.7 281.09 198.7C286.74 192.8 279.03 186.12 279.03 186.12C287.25 181.24 283.65 173.54 283.65 173.54C280.83 188.47 268 185.13 268 185.13C263.12 186.93 261.32 183.59 261.32 183.59C261.275 180.668 260.44 177.812 258.903 175.326C257.366 172.84 255.184 170.816 252.59 169.47C243.09 162.54 230.77 167.41 230.77 167.41C222 162.53 222 148.67 222 148.67C222.26 143.53 232 141.73 232 141.73C237.65 141.99 243.81 133.26 243.81 133.26C246.12 135.06 253.31 133.26 253.31 133.26C259.22 129.66 265.38 133.52 265.38 133.52C280.27 136.35 274.38 150.21 274.38 150.21C271.81 158.43 256.66 157.92 256.66 157.92C244.59 163.05 233.81 155.1 233.81 155.1C242.81 167.16 266.42 159.72 266.42 159.72C271.56 156.38 277.97 157.41 277.97 157.41C296.71 158.7 302.62 177.69 302.62 177.69C303.39 162.03 280.28 152.78 280.28 152.78C291.58 149.7 291.07 135.83 291.07 135.83C291.47 134.64 295.07 134.74 296.7 134.83C296.7 134.94 296.7 134.72 296.7 134.83C296.7 134.94 318.29 137.12 312.12 174.09C312.12 174.09 312.12 174.09 312.06 174.09C310.56 177.89 308.06 184.17 303.52 185.95C303.52 185.95 305.64 204.44 296.59 209.45C296.59 209.45 278.68 222.35 256.92 213.45C256.92 213.45 244.98 201.51 235.74 199.78C235.74 199.78 245.18 190.34 238.63 182.25C238.63 182.25 241.33 195.92 228.23 200.16C228.23 200.16 212.23 204.16 208.59 195.16C207.153 193.154 206.534 190.676 206.86 188.23C206.86 188.23 208.01 179.95 204.55 175.13C202.648 171.451 202.167 167.201 203.2 163.19C203.2 163.19 198.77 167.43 201.85 177.05C201.85 177.05 204.74 182.83 202.04 191.11C202.04 191.11 201.65 195.11 206.66 200.74C206.66 200.74 210.32 205.36 211.28 205.94C211.28 205.94 215.9 219.23 229.19 214.8C229.19 214.8 217.25 213.45 217.06 205.36C219.141 206.248 221.39 206.674 223.652 206.608C225.913 206.543 228.134 205.987 230.16 204.98C230.16 204.98 231.16 202.48 239.21 210.56C239.21 210.56 242.87 214.41 249.42 220.19C249.42 220.19 253.66 226.19 264.42 223.46C264.42 223.46 295.62 225 304.48 204.59C304.48 204.59 308.48 193.42 306.6 187.07C306.6 187.07 313.53 181.48 314.69 177.83C314.69 177.83 315.25 178.22 314.69 177.83C314.91 177.98 314.69 177.78 314.69 177.78C317.8 180.59 334.39 206.78 303.92 234.64C303.92 234.64 313.16 260.32 272.08 270.59C272.08 270.59 257.45 278.94 245.63 269.44C245.63 269.44 253 280.01 266 276.38C258.81 281.38 244.93 286.53 222.78 276.75C222.78 276.75 186.83 283.94 179.64 263.4" fill="#004E55"/>
<path d="M290.84 132C289.56 121.71 280.57 115 280.57 115C272.57 107.81 267.47 111.15 267.47 111.15C283.65 114.74 286.99 132.46 286.99 132.46C289.05 144.53 279.8 146.32 279.8 146.32C283.14 133.23 270.56 129.12 270.56 129.12C263.89 123.98 255.67 127.06 255.67 127.06C248.74 130.66 244.67 127.06 244.67 127.06C242.1 123.47 244.41 118.33 244.41 118.33C252.11 120.39 258.53 115.25 258.53 115.25C263.66 112.17 261.36 105.25 261.36 105.25C259.05 118.6 244.41 113.47 244.41 113.47C242.61 109.36 247.49 106.28 247.49 106.28C255.49 102.17 251.34 95.28 251.34 95.28C250.999 93.7035 251.031 92.0693 251.432 90.507C251.833 88.9448 252.592 87.4975 253.65 86.28C248 86.79 247.75 97.06 247.75 97.06C247.776 98.5531 247.313 100.014 246.432 101.22C245.551 102.426 244.3 103.311 242.87 103.74C237.99 105.79 240.3 114.26 240.3 114.26C237.99 117.09 240.04 126.07 240.04 126.07C240.55 134.07 230.54 135.57 230.54 135.57C221.54 136.57 215.13 143.57 215.13 143.57C206.66 135.87 193.31 137.92 193.31 137.92C182.11 136.26 176.61 146.32 174.91 150.25C174.75 146.656 175.333 143.069 176.62 139.71C176.62 139.71 168.11 118.38 182.49 110.71C182.49 110.71 198.15 110.97 205.35 123.03C205.35 123.03 230.51 125.86 226.4 110.71C226.4 110.71 223.58 105.83 227.69 102.49C227.69 102.49 219.99 104.8 223.07 111.22C223.07 111.22 226.15 120.22 208.18 120.22C208.18 120.22 199.96 105.33 185.84 107.9C185.84 107.9 175.57 94.03 186.35 81.2C186.35 81.2 195.82 64.07 222.61 76.04C222.61 76.09 222.55 76.04 222.55 76.04C230.77 90.68 221.78 91.19 221.78 91.19C217.67 79.89 208.69 83.19 208.69 83.19C215.88 83.44 218.45 92.19 218.45 92.19C209.72 101.44 198.68 93.48 198.68 93.48C191.49 86.8 196.11 81.67 196.11 81.67C187.9 85.52 196.88 95.28 196.88 95.28C205.36 106.06 221.01 95.28 221.01 95.28C234.88 96.05 226.92 77.56 226.92 77.56C226.92 77.56 257.73 69.34 265.92 97.08C265.92 97.08 292.46 99.6299 295.98 130.76L290.84 132Z" fill="#004E55"/>
<path d="M137.77 179.28L196.43 249.34C196.43 249.34 254.09 71.49 329.94 17.6C329.94 17.6 269.94 45.6 187.33 199.76C187.33 199.76 184 215 137.77 179.28Z" fill="#BEF7FD"/>
<path d="M16.25 138.72C16.25 138.72 111.88 127.95 176.25 328.16L202 252.35C202 252.35 183 291.58 147.52 222.08C147.52 222.08 102 121.34 16.25 138.72Z" fill="#2FBDCA"/>
</svg>
