<svg xmlns="http://www.w3.org/2000/svg" viewBox="0 0 344.79 344.79">
  <defs>
    <style>
      <!-- texto y cerebro -->
      .cls-1{fill:#bef7fd;}
      <!-- v derecha -->
      .cls-2{fill:#004e55;}
      .cls-3{fill:#2fbdca;}
      .cls-4{fill:none;}
    </style>
  </defs>
  <title>Asset 1</title>
  <g id="Layer_2" data-name="Layer 2">
    <g id="Layer_1-2" data-name="Layer 1">
    <path class="cls-1" d="M163.67,259c-15,17.33-38.13,6.16-38.13,6.16-12.32,12.33-21.57.77-21.57.77,11.94,7.7,20.41-6.93,20.41-6.93,1.54-10,8.86-8.48,8.86-8.48a5.91,5.91,0,0,0-4.62,4.24c-3.85,6.55,5,7.7,5,7.7,15.89,4.69,29.07-11.26,30.65-13.27,2.28-5.87,3.62-9.69.81-15.18h0s-6.42-8.13-12.2-5.43c0,0-6.16-.39-8.86,2.69,0,0-8.47,5-16.95,1.93,0,0-10.63-2.39-20.24,10.6,2.16,3,7.53,4,7.53,4-5.61.93-8.65.16-10.19-.58-2.8,2.71-11.5,10.11-21,7.9A14.05,14.05,0,0,1,73.54,252c-6.46,3.93-13.69,2.1-16.24,1.24l-.67-.24-.29-.12a2.88,2.88,0,0,0,.29.12,3.85,3.85,0,0,0,.67.24c4,1,11.84-3,13.76-4-1.4-1.86-5.25-6.46-9.83-7.69,0,0-24.44-3.06-15.5-24.78.06-.16.1-.26.1-.26l-.1.26c-.75,2-5.1,16.34,17,21.7a26.85,26.85,0,0,1,12.32,9.24s12.71,7.7,25.42-5.39c0,0,10.4-17.72,27-14.25,0,0,12.32.77,18.87-3.85,0,0,13.87-1.16,17.33-6.93,0,0,.53-1.24.08-.14,3-6,5-14.36,1.72-29.78,0,0,.15-3.68-1.39-4.71-.11-.07-.2-.07-.13-.07,1.11,1.16,0-.1,0-.1a18.18,18.18,0,0,1-15.15,8c6.42-1,12.07-11.81,12.07-11.81a68,68,0,0,0,7-21.82h-.05c-5.14-15.66-26.19-13.35-26.19-13.35-14.89,2.06-19.52,20-19.52,20-5.13,4.11-5.39,12.58-5.39,12.58-3.85,11,6.42,16.94,6.42,16.94-11.55-1.8-10-17.71-10-17.71-.26-6.16-9.25-4.88-9.25-4.88-15.41-3.6-17.46,12.07-17.46,12.07-1,5.65-1.8,5.9-1.8,5.9-2.82,5.65-8.47,1.8-8.47,1.8-4.11-2.82-9-.51-9-.51-4.62-1.29-4.62,9-4.62,9-5.65-5.9,2.06-12.58,2.06-12.58-8.22-4.88-4.62-12.58-4.62-12.58,2.83,14.89,15.66,11.55,15.66,11.55,4.88,1.8,6.68-1.54,6.68-1.54A16.19,16.19,0,0,1,91,169.47c9.5-6.93,21.82-2.06,21.82-2.06,8.73-4.88,8.73-18.74,8.73-18.74-.26-5.14-10-6.94-10-6.94-5.65.26-11.81-8.47-11.81-8.47-2.31,1.8-9.5,0-9.5,0-5.91-3.6-12.07.26-12.07.26-14.89,2.83-9,16.69-9,16.69,2.57,8.22,17.72,7.71,17.72,7.71,12.07,5.13,22.85-2.82,22.85-2.82-9,12.06-32.61,4.62-32.61,4.62-5.14-3.34-11.55-2.31-11.55-2.31-18.74,1.29-24.65,20.28-24.65,20.28-.77-15.66,22.34-24.91,22.34-24.91-11.3-3.08-10.79-16.95-10.79-16.95-.4-1.19-4-1.09-5.63-1,0,.11,0-.11,0,0s-21.59,2.29-15.43,39.26c0,0,0,0,.06,0,1.5,3.8,4,10.08,8.54,11.86,0,0-2.12,18.49,6.93,23.5,0,0,17.91,12.9,39.67,4,0,0,11.94-11.94,21.18-13.67,0,0-9.44-9.44-2.89-17.53,0,0-2.7,13.67,10.4,17.91,0,0,16,4,19.64-5a9.7,9.7,0,0,0,1.73-6.93s-1.15-8.28,2.31-13.1a16.85,16.85,0,0,0,1.35-11.94s4.43,4.24,1.35,13.86c0,0-2.89,5.78-.19,14.06,0,0,.39,4-4.62,9.63,0,0-3.66,4.62-4.62,5.2,0,0-4.62,13.29-17.91,8.86,0,0,11.94-1.35,12.13-9.44a15.64,15.64,0,0,1-13.1-.38s-1-2.5-9.05,5.58c0,0-3.66,3.85-10.21,9.63,0,0-4.24,6-15,3.27,0,0-31.2,1.54-40.06-18.87,0,0-4-11.17-2.12-17.52,0,0-6.93-5.59-8.09-9.24,0,0-.56.39,0,0-.22.15,0-.05,0-.05h0c-3.11,2.81-19.7,29,10.77,56.86,0,0-9.24,25.68,31.84,35.95,0,0,14.63,8.35,26.45-1.15,0,0-7.37,10.57-20.37,6.94,7.19,5,21.07,10.15,43.22.37,0,0,35.95,7.19,43.14-13.35"/>
    <path class="cls-1" d="M52.75,132C54,121.71,63,115,63,115c8-7.19,13.1-3.85,13.1-3.85-16.18,3.59-19.52,21.31-19.52,21.31-2.06,12.07,7.19,13.86,7.19,13.86-3.34-13.09,9.24-17.2,9.24-17.2,6.67-5.14,14.89-2.06,14.89-2.06,6.93,3.6,11,0,11,0,2.57-3.59.26-8.73.26-8.73-7.7,2.06-14.12-3.08-14.12-3.08-5.13-3.08-2.82-10-2.82-10,2.31,13.35,16.95,8.22,16.95,8.22,1.8-4.11-3.08-7.19-3.08-7.19-8-4.11-3.85-11-3.85-11a10.38,10.38,0,0,0-2.31-9c5.65.51,5.9,10.78,5.9,10.78a6.85,6.85,0,0,0,4.88,6.68c4.88,2.05,2.57,10.52,2.57,10.52,2.31,2.83.26,11.81.26,11.81-.51,8,9.5,9.5,9.5,9.5,9,1,15.41,8,15.41,8,8.47-7.7,21.82-5.65,21.82-5.65,11.2-1.66,16.7,8.4,18.4,12.33A26.21,26.21,0,0,0,167,139.68s8.51-21.33-5.87-29l0,0s-15.66.26-22.86,12.32c0,0-25.16,2.83-21.05-12.32,0,0,2.82-4.88-1.29-8.22,0,0,7.7,2.31,4.62,8.73,0,0-3.08,9,14.89,9,0,0,8.22-14.89,22.34-12.32,0,0,10.27-13.87-.51-26.7,0,0-9.47-17.13-36.26-5.16,0,.05.06,0,.06,0-8.22,14.64.77,15.15.77,15.15,4.11-11.3,13.09-8,13.09-8-7.19.25-9.76,9-9.76,9,8.73,9.25,19.77,1.29,19.77,1.29,7.19-6.68,2.57-11.81,2.57-11.81,8.21,3.85-.77,13.61-.77,13.61-8.48,10.78-24.13,0-24.13,0-13.87.77-5.91-17.72-5.91-17.72s-30.81-8.22-39,19.52c0,0-26.54,2.55-30.06,33.68v0Z"/>
    <path class="cls-1" d="M179.92,259c15,17.33,38.13,6.16,38.13,6.16,12.32,12.33,21.57.77,21.57.77-11.94,7.7-20.41-6.93-20.41-6.93-1.54-10-8.86-8.48-8.86-8.48a5.91,5.91,0,0,1,4.62,4.24c3.85,6.55-5,7.7-5,7.7-15.89,4.69-29.07-11.26-30.65-13.27-2.28-5.87-3.62-9.69-.8-15.18h0s6.42-8.13,12.2-5.43c0,0,6.16-.39,8.86,2.69,0,0,8.47,5,16.95,1.93,0,0,10.63-2.39,20.24,10.6-2.16,3-7.53,4-7.53,4,5.61.93,8.65.16,10.19-.58,2.8,2.71,11.5,10.11,21,7.9a14.05,14.05,0,0,0,9.64-3.06c6.46,3.93,13.69,2.1,16.24,1.24L287,253l.29-.12a2.84,2.84,0,0,1-.29.12,3.81,3.81,0,0,1-.67.24c-4,1-11.84-3-13.76-4,1.4-1.86,5.25-6.46,9.83-7.69,0,0,24.44-3.06,15.5-24.78-.06-.16-.1-.26-.1-.26s.06.17.1.26c.75,2,5.1,16.34-17,21.7a26.85,26.85,0,0,0-12.32,9.24s-12.71,7.7-25.42-5.39c0,0-10.4-17.72-27-14.25,0,0-12.33.77-18.87-3.85,0,0-13.86-1.16-17.33-6.93,0,0-.53-1.24-.08-.14-3-6-5-14.36-1.72-29.78,0,0-.15-3.68,1.39-4.71.11-.07.2-.07.14-.07-1.11,1.16,0-.1,0-.1a18.18,18.18,0,0,0,15.15,8c-6.42-1-12.07-11.81-12.07-11.81a68,68,0,0,1-7-21.82h.06c5.14-15.66,26.19-13.35,26.19-13.35,14.89,2.06,19.51,20,19.51,20,5.13,4.11,5.39,12.58,5.39,12.58,3.85,11-6.42,16.94-6.42,16.94,11.55-1.8,10-17.71,10-17.71.26-6.16,9.24-4.88,9.24-4.88,15.41-3.6,17.46,12.07,17.46,12.07,1,5.65,1.8,5.9,1.8,5.9,2.82,5.65,8.47,1.8,8.47,1.8,4.11-2.82,9-.51,9-.51,4.62-1.29,4.62,9,4.62,9,5.65-5.9-2.06-12.58-2.06-12.58,8.22-4.88,4.62-12.58,4.62-12.58C280.83,188.47,268,185.13,268,185.13c-4.88,1.8-6.68-1.54-6.68-1.54a16.19,16.19,0,0,0-8.73-14.12c-9.5-6.93-21.82-2.06-21.82-2.06C222,162.53,222,148.67,222,148.67c.26-5.14,10-6.94,10-6.94,5.65.26,11.81-8.47,11.81-8.47,2.31,1.8,9.5,0,9.5,0,5.91-3.6,12.07.26,12.07.26,14.89,2.83,9,16.69,9,16.69-2.57,8.22-17.72,7.71-17.72,7.71-12.07,5.13-22.85-2.82-22.85-2.82,9,12.06,32.61,4.62,32.61,4.62,5.14-3.34,11.55-2.31,11.55-2.31,18.74,1.29,24.65,20.28,24.65,20.28.77-15.66-22.34-24.91-22.34-24.91,11.3-3.08,10.79-16.95,10.79-16.95.4-1.19,4-1.09,5.63-1,0,.11,0-.11,0,0s21.59,2.29,15.42,39.26c0,0,0,0-.06,0-1.5,3.8-4,10.08-8.54,11.86,0,0,2.12,18.49-6.93,23.5,0,0-17.91,12.9-39.67,4,0,0-11.94-11.94-21.18-13.67,0,0,9.44-9.44,2.89-17.53,0,0,2.7,13.67-10.4,17.91,0,0-16,4-19.64-5a9.7,9.7,0,0,1-1.73-6.93s1.15-8.28-2.31-13.1a16.85,16.85,0,0,1-1.35-11.94s-4.43,4.24-1.35,13.86c0,0,2.89,5.78.19,14.06,0,0-.39,4,4.62,9.63,0,0,3.66,4.62,4.62,5.2,0,0,4.62,13.29,17.91,8.86,0,0-11.94-1.35-12.13-9.44a15.64,15.64,0,0,0,13.1-.38s1-2.5,9.05,5.58c0,0,3.66,3.85,10.21,9.63,0,0,4.24,6,15,3.27,0,0,31.2,1.54,40.06-18.87,0,0,4-11.17,2.12-17.52,0,0,6.93-5.59,8.09-9.24,0,0,.56.39,0,0,.22.15,0-.05,0-.05h0c3.11,2.81,19.7,29-10.77,56.86,0,0,9.24,25.68-31.84,35.95,0,0-14.63,8.35-26.45-1.15,0,0,7.37,10.57,20.37,6.94-7.19,5-21.07,10.15-43.22.37,0,0-35.95,7.19-43.14-13.35"/>
    <path class="cls-1" d="M290.84,132C289.56,121.71,280.57,115,280.57,115c-8-7.19-13.1-3.85-13.1-3.85,16.18,3.59,19.52,21.31,19.52,21.31,2.06,12.07-7.19,13.86-7.19,13.86,3.34-13.09-9.24-17.2-9.24-17.2-6.67-5.14-14.89-2.06-14.89-2.06-6.93,3.6-11,0-11,0-2.57-3.59-.26-8.73-.26-8.73,7.7,2.06,14.12-3.08,14.12-3.08,5.13-3.08,2.83-10,2.83-10-2.31,13.35-16.95,8.22-16.95,8.22-1.8-4.11,3.08-7.19,3.08-7.19,8-4.11,3.85-11,3.85-11a10.38,10.38,0,0,1,2.31-9c-5.65.51-5.9,10.78-5.9,10.78a6.85,6.85,0,0,1-4.88,6.68c-4.88,2.05-2.57,10.52-2.57,10.52-2.31,2.83-.26,11.81-.26,11.81.51,8-9.5,9.5-9.5,9.5-9,1-15.41,8-15.41,8-8.47-7.7-21.82-5.65-21.82-5.65-11.2-1.66-16.7,8.4-18.4,12.33a26.2,26.2,0,0,1,1.71-10.54s-8.51-21.33,5.87-29l0,0s15.66.26,22.86,12.32c0,0,25.16,2.83,21.05-12.32,0,0-2.82-4.88,1.29-8.22,0,0-7.7,2.31-4.62,8.73,0,0,3.08,9-14.89,9,0,0-8.22-14.89-22.34-12.32,0,0-10.27-13.87.51-26.7,0,0,9.47-17.13,36.26-5.16,0,.05-.06,0-.06,0,8.22,14.64-.77,15.15-.77,15.15-4.11-11.3-13.09-8-13.09-8,7.19.25,9.76,9,9.76,9-8.73,9.25-19.77,1.29-19.77,1.29-7.19-6.68-2.57-11.81-2.57-11.81-8.21,3.85.77,13.61.77,13.61,8.48,10.78,24.13,0,24.13,0,13.87.77,5.91-17.72,5.91-17.72s30.81-8.22,39,19.52c0,0,26.54,2.55,30.06,33.68v0Z"/>
    <path class="cls-2" d="M137.77,179.28l58.66,70.06S254.09,71.49,329.94,17.6c0,0-60,28-142.61,182.16C187.33,199.76,184,215,137.77,179.28Z"/>
    <path class="cls-3" d="M16.25,138.72s95.63-10.77,160,189.44L202,252.35S183,291.58,147.52,222.08C147.52,222.08,102,121.34,16.25,138.72Z"/>
    <rect class="cls-4" width="344.79" height="344.79"/>
    </g>
  </g>
</svg>