<svg xmlns="http://www.w3.org/2000/svg" viewBox="0 0 531.94 420.68">
    <defs>
        <style>
            <!-- v derecha -->
            .cls-1{
                <!-- fill:#BEF8FD -->
                fill:#004e55
            }
            <!-- texto y cerebro -->
            .cls-2{
                fill:#BEF8FD
                <!-- fill:#bef7fd -->
            }
            <!-- v izquierda -->
            .cls-3{
                <!-- fill:#BEF8FD -->
            fill:#2CB1BC
            }
        </style>
    </defs>
    <g id="Layer_2" data-name="Layer 2">
        <g id="Layer_1-2" data-name="Layer 1">
            <path class="cls-2" d="M85.81 344.72h2.27L95 360.8l7-16.09h2.27l-9.06 20.82h-.45zM123.74 354.37v11.17h-1.42v-1.92a6.16 6.16 0 01-2 1.65 5.66 5.66 0 01-6.51-1.17 5.76 5.76 0 01-1.68-4.18 5.66 5.66 0 011.69-4.13 5.52 5.52 0 014.07-1.71 5.27 5.27 0 012.49.58 5.66 5.66 0 012 1.76v-2.05zm-5.74 1.1a4.33 4.33 0 00-3.83 2.25 4.52 4.52 0 000 4.51 4.4 4.4 0 001.63 1.68 4.24 4.24 0 002.19.6 4.49 4.49 0 002.23-.59 4.16 4.16 0 001.62-1.61 4.59 4.59 0 00.57-2.29 4.45 4.45 0 00-1.28-3.24 4.23 4.23 0 00-3.13-1.31zM131 350.06h1.44v15.48H131zM149 361.83l1.21.64a6.6 6.6 0 01-1.38 1.89 5.46 5.46 0 01-1.76 1.09 6.12 6.12 0 01-2.21.38 5.34 5.34 0 01-4.27-1.79 6 6 0 01-1.54-4 6 6 0 011.3-3.79 5.33 5.33 0 014.43-2.11 5.51 5.51 0 014.56 2.17 6 6 0 011.23 3.82h-10a4.54 4.54 0 001.24 3.19 4 4 0 003 1.24 4.77 4.77 0 001.66-.3 4.36 4.36 0 001.37-.79 6.7 6.7 0 001.16-1.64zm0-3a4.77 4.77 0 00-.84-1.84 4 4 0 00-1.45-1.11 4.45 4.45 0 00-1.9-.42 4.1 4.1 0 00-2.83 1.06 4.78 4.78 0 00-1.3 2.31zM156.9 354.37h1.47V356a5.14 5.14 0 011.39-1.44 2.73 2.73 0 011.52-.48 2.62 2.62 0 011.27.38l-.75 1.21a2 2 0 00-.76-.19 2.08 2.08 0 00-1.39.59 3.73 3.73 0 00-1 1.83 17.58 17.58 0 00-.27 3.86v3.78h-1.48zM168.47 349.78a1.19 1.19 0 010 2.37 1.13 1.13 0 01-.83-.35 1.14 1.14 0 01-.35-.83 1.15 1.15 0 01.35-.84 1.13 1.13 0 01.83-.35zm-.71 4.6h1.44v11.17h-1.44zM187.51 354.37v11.17h-1.42v-1.92a6.16 6.16 0 01-2 1.65 5.66 5.66 0 01-6.51-1.17 5.76 5.76 0 01-1.68-4.18 5.66 5.66 0 011.69-4.13 5.52 5.52 0 014.07-1.71 5.27 5.27 0 012.49.58 5.66 5.66 0 012 1.76v-2.05zm-5.74 1.1a4.33 4.33 0 00-3.83 2.25 4.52 4.52 0 000 4.51 4.4 4.4 0 001.63 1.68 4.24 4.24 0 002.19.6 4.49 4.49 0 002.23-.59 4.16 4.16 0 001.62-1.61 4.59 4.59 0 00.57-2.29 4.45 4.45 0 00-1.28-3.24 4.23 4.23 0 00-3.13-1.31zM204.32 344.72h2.27l6.9 16.09 7-16.09h2.27l-9.06 20.82h-.45zM242.25 354.37v11.17h-1.42v-1.92a6.16 6.16 0 01-2 1.65 5.66 5.66 0 01-6.51-1.17 5.76 5.76 0 01-1.68-4.18 5.66 5.66 0 011.69-4.13 5.52 5.52 0 014.07-1.71 5.27 5.27 0 012.49.58 5.66 5.66 0 012 1.76v-2.05zm-5.74 1.1a4.33 4.33 0 00-3.83 2.25 4.52 4.52 0 000 4.51 4.4 4.4 0 001.63 1.68 4.24 4.24 0 002.19.6 4.49 4.49 0 002.23-.59 4.16 4.16 0 001.62-1.61 4.59 4.59 0 00.57-2.29 4.45 4.45 0 00-1.28-3.24 4.23 4.23 0 00-3.13-1.31zM249.47 350.06h1.44v15.48h-1.44zM257.88 350.06h1.44v15.48h-1.44zM277.63 354.37v11.17h-1.42v-1.92a6.16 6.16 0 01-2 1.65 5.66 5.66 0 01-6.51-1.17 5.76 5.76 0 01-1.68-4.18 5.66 5.66 0 011.69-4.13 5.52 5.52 0 014.07-1.71 5.27 5.27 0 012.49.58 5.66 5.66 0 012 1.76v-2.05zm-5.74 1.1a4.33 4.33 0 00-3.83 2.25 4.52 4.52 0 000 4.51 4.4 4.4 0 001.63 1.68 4.24 4.24 0 002.19.6 4.49 4.49 0 002.23-.59 4.16 4.16 0 001.62-1.61 4.59 4.59 0 00.57-2.29 4.45 4.45 0 00-1.28-3.24 4.23 4.23 0 00-3.13-1.31zM296.22 350.06v15.48h-1.42v-1.92a6.17 6.17 0 01-2 1.65 5.66 5.66 0 01-6.51-1.17 5.76 5.76 0 01-1.68-4.18 5.66 5.66 0 011.69-4.13 5.52 5.52 0 014.07-1.71 5.27 5.27 0 012.49.58 5.67 5.67 0 012 1.76v-6.36zm-5.74 5.41a4.33 4.33 0 00-3.83 2.25 4.52 4.52 0 000 4.51 4.4 4.4 0 001.63 1.68 4.24 4.24 0 002.19.6 4.49 4.49 0 002.23-.59 4.16 4.16 0 001.62-1.61 4.59 4.59 0 00.57-2.29 4.45 4.45 0 00-1.28-3.24 4.23 4.23 0 00-3.14-1.31zM314.8 354.37v11.17h-1.42v-1.92a6.16 6.16 0 01-2 1.65 5.66 5.66 0 01-6.51-1.17 5.76 5.76 0 01-1.68-4.18 5.66 5.66 0 011.69-4.13 5.52 5.52 0 014.07-1.71 5.27 5.27 0 012.49.58 5.66 5.66 0 012 1.76v-2.05zm-5.74 1.1a4.33 4.33 0 00-3.83 2.25 4.52 4.52 0 000 4.51 4.4 4.4 0 001.63 1.68 4.24 4.24 0 002.19.6 4.49 4.49 0 002.23-.59 4.16 4.16 0 001.62-1.61 4.59 4.59 0 00.57-2.29 4.45 4.45 0 00-1.28-3.24 4.23 4.23 0 00-3.13-1.31zM321.69 354.37h1.47V356a5.14 5.14 0 011.39-1.44 2.73 2.73 0 011.52-.48 2.62 2.62 0 011.27.38l-.75 1.21a2 2 0 00-.76-.19 2.08 2.08 0 00-1.39.59 3.73 3.73 0 00-1 1.83 17.58 17.58 0 00-.27 3.86v3.78h-1.47zM342.08 361.83l1.21.64a6.6 6.6 0 01-1.38 1.89 5.46 5.46 0 01-1.76 1.09 6.12 6.12 0 01-2.21.38 5.34 5.34 0 01-4.27-1.79 6 6 0 01-1.54-4 6 6 0 011.3-3.79 5.33 5.33 0 014.43-2.11 5.51 5.51 0 014.56 2.17 6 6 0 011.23 3.82h-10a4.54 4.54 0 001.24 3.19 4 4 0 003 1.24 4.77 4.77 0 001.66-.3 4.36 4.36 0 001.37-.79 6.7 6.7 0 001.16-1.64zm0-3a4.77 4.77 0 00-.84-1.84 4 4 0 00-1.45-1.11 4.45 4.45 0 00-1.9-.42 4.1 4.1 0 00-2.83 1.06 4.78 4.78 0 00-1.3 2.31zM356.15 355.6l-.92 1a3.32 3.32 0 00-2.25-1.12 1.7 1.7 0 00-1.2.46 1.43 1.43 0 00-.5 1.08 1.6 1.6 0 00.41 1 5.77 5.77 0 001.73 1.18 6.45 6.45 0 012.18 1.6 2.92 2.92 0 01.57 1.76 3.15 3.15 0 01-1 2.33 3.3 3.3 0 01-2.42 1 4.22 4.22 0 01-1.84-.42 4 4 0 01-1.45-1.16l.9-1a3.14 3.14 0 002.33 1.24 2.1 2.1 0 001.47-.55 1.71 1.71 0 00.61-1.3 1.67 1.67 0 00-.4-1.1 6.45 6.45 0 00-1.81-1.19 5.8 5.8 0 01-2.06-1.54 2.9 2.9 0 01-.5-1.87 2.82 2.82 0 01.87-2.11 3 3 0 012.19-.84 4.55 4.55 0 013.09 1.55zM372.27 344.72h2.27l6.9 16.09 7-16.09h2.27l-9.06 20.82h-.45zM408.48 361.83l1.21.64a6.6 6.6 0 01-1.38 1.89 5.46 5.46 0 01-1.76 1.09 6.12 6.12 0 01-2.21.38 5.34 5.34 0 01-4.27-1.79 6 6 0 01-1.54-4 6 6 0 011.3-3.79 5.33 5.33 0 014.43-2.11 5.51 5.51 0 014.56 2.17 6 6 0 011.23 3.82H400a4.54 4.54 0 001.24 3.19 4 4 0 003 1.24 4.77 4.77 0 001.66-.3 4.36 4.36 0 001.37-.79 6.7 6.7 0 001.21-1.64zm0-3a4.77 4.77 0 00-.84-1.84 4 4 0 00-1.45-1.11 4.45 4.45 0 00-1.9-.42 4.1 4.1 0 00-2.83 1.06 4.78 4.78 0 00-1.3 2.31zM416.73 350.06h1.44v15.48h-1.44zM425.85 349.78a1.19 1.19 0 010 2.37 1.13 1.13 0 01-.83-.35 1.14 1.14 0 01-.35-.83 1.15 1.15 0 01.35-.84 1.13 1.13 0 01.83-.35zm-.71 4.6h1.44v11.17h-1.44zM433.77 354.37h1.44v2a6 6 0 011.91-1.72 4.69 4.69 0 012.28-.57 4 4 0 012.22.64 3.79 3.79 0 011.43 1.71 9.07 9.07 0 01.46 3.36v5.75h-1.44v-5.33a13.08 13.08 0 00-.16-2.58 2.83 2.83 0 00-1-1.67 2.9 2.9 0 00-1.85-.56 3.54 3.54 0 00-2.34.86 4 4 0 00-1.36 2.13 14.81 14.81 0 00-.21 3v4.09h-1.44z"/>
            <path class="cls-2" d="M258.3 259c-15 17.33-38.13 6.16-38.13 6.16-12.32 12.33-21.57.77-21.57.77C210.54 273.59 219 259 219 259c1.54-10 8.86-8.48 8.86-8.48a5.91 5.91 0 00-4.62 4.24c-3.85 6.55 5 7.7 5 7.7 15.89 4.69 29.07-11.26 30.65-13.27 2.28-5.87 3.62-9.69.81-15.18s-6.42-8.13-12.2-5.43c0 0-6.16-.39-8.86 2.69 0 0-8.47 5-16.95 1.93 0 0-10.63-2.39-20.24 10.6 2.16 3 7.53 4 7.53 4-5.61.93-8.65.16-10.19-.58-2.8 2.71-11.5 10.11-21 7.9a14.05 14.05 0 01-9.64-3.06c-6.46 3.93-13.69 2.1-16.24 1.24l-.67-.24-.29-.12a2.88 2.88 0 00.29.12 3.85 3.85 0 00.67.24c4 1 11.84-3 13.76-4-1.4-1.86-5.25-6.46-9.83-7.69 0 0-24.44-3.06-15.5-24.78.06-.16.1-.26.1-.26l-.1.26c-.75 2-5.1 16.34 17 21.7a26.85 26.85 0 0112.32 9.24s12.71 7.7 25.42-5.39c0 0 10.4-17.72 27-14.25 0 0 12.32.77 18.87-3.85 0 0 13.87-1.16 17.33-6.93 0 0 .53-1.24.08-.14 3-6 5-14.36 1.72-29.78 0 0 .15-3.68-1.39-4.71-.11-.07-.2-.07-.13-.07 1.11 1.16 0-.1 0-.1a18.18 18.18 0 01-15.15 8c6.42-1 12.07-11.81 12.07-11.81a68 68 0 007-21.82h-.05c-5.14-15.66-26.19-13.35-26.19-13.35-14.89 2.06-19.52 20-19.52 20-5.13 4.11-5.39 12.58-5.39 12.58-3.85 11 6.42 16.94 6.42 16.94-11.55-1.8-10-17.71-10-17.71-.26-6.16-9.25-4.88-9.25-4.88-15.43-3.6-17.5 12.07-17.5 12.07-1 5.65-1.8 5.9-1.8 5.9-2.82 5.65-8.47 1.8-8.47 1.8-4.11-2.82-9-.51-9-.51-4.62-1.29-4.62 9-4.62 9-5.65-5.9 2.06-12.58 2.06-12.58-8.22-4.88-4.62-12.58-4.62-12.58 2.83 14.89 15.66 11.55 15.66 11.55 4.88 1.8 6.68-1.54 6.68-1.54a16.19 16.19 0 018.73-14.12c9.5-6.93 21.82-2.06 21.82-2.06 8.73-4.88 8.73-18.74 8.73-18.74-.26-5.14-10-6.94-10-6.94-5.65.26-11.81-8.47-11.81-8.47-2.31 1.8-9.5 0-9.5 0-5.91-3.6-12.07.26-12.07.26-14.89 2.83-9 16.69-9 16.69 2.57 8.22 17.72 7.71 17.72 7.71 12.07 5.13 22.85-2.82 22.85-2.82-9 12.06-32.61 4.62-32.61 4.62-5.14-3.34-11.55-2.31-11.55-2.31-18.74 1.29-24.65 20.28-24.65 20.28-.77-15.66 22.34-24.91 22.34-24.91-11.3-3.08-10.79-16.95-10.79-16.95-.4-1.19-4-1.09-5.63-1 0 .11 0-.11 0 0s-21.59 2.29-15.43 39.26h.06c1.5 3.8 4 10.08 8.54 11.86 0 0-2.12 18.49 6.93 23.5 0 0 17.91 12.9 39.67 4 0 0 11.94-11.94 21.18-13.67 0 0-9.44-9.44-2.89-17.53 0 0-2.7 13.67 10.4 17.91 0 0 16 4 19.64-5a9.7 9.7 0 001.73-6.93s-1.15-8.28 2.31-13.1a16.85 16.85 0 001.39-11.91s4.43 4.24 1.35 13.86c0 0-2.89 5.78-.19 14.06 0 0 .39 4-4.62 9.63 0 0-3.66 4.62-4.62 5.2 0 0-4.62 13.29-17.91 8.86 0 0 11.94-1.35 12.13-9.44A15.64 15.64 0 01208 205s-1-2.5-9.05 5.58c0 0-3.66 3.85-10.21 9.63 0 0-4.24 6-15 3.27 0 0-31.2 1.54-40.06-18.87 0 0-4-11.17-2.12-17.52 0 0-6.93-5.59-8.09-9.24 0 0-.56.39 0 0-.22.15 0-.05 0-.05-3.11 2.81-19.7 29 10.77 56.86 0 0-9.24 25.68 31.84 35.95 0 0 14.63 8.35 26.45-1.15 0 0-7.37 10.57-20.37 6.94 7.19 5 21.07 10.15 43.22.37 0 0 35.95 7.19 43.14-13.35"/>
            <path class="cls-2" d="M147.37 132c1.29-10.27 10.27-16.95 10.27-16.95 8-7.19 13.1-3.85 13.1-3.85-16.18 3.59-19.52 21.31-19.52 21.31-2.06 12.07 7.19 13.86 7.19 13.86-3.34-13.09 9.24-17.2 9.24-17.2 6.67-5.14 14.89-2.06 14.89-2.06 6.93 3.6 11 0 11 0 2.57-3.59.26-8.73.26-8.73-7.7 2.06-14.12-3.08-14.12-3.08-5.13-3.08-2.82-10-2.82-10 2.31 13.35 16.95 8.22 16.95 8.22 1.8-4.11-3.08-7.19-3.08-7.19-8-4.11-3.85-11-3.85-11a10.38 10.38 0 00-2.31-9c5.65.51 5.9 10.78 5.9 10.78a6.85 6.85 0 004.88 6.68c4.88 2.05 2.57 10.52 2.57 10.52 2.31 2.83.26 11.81.26 11.81-.51 8 9.5 9.5 9.5 9.5 9 1 15.41 8 15.41 8 8.47-7.7 21.82-5.65 21.82-5.65 11.2-1.66 16.7 8.4 18.4 12.33a26.21 26.21 0 00-1.71-10.54s8.51-21.33-5.87-29-15.66.26-22.86 12.32c0 0-25.16 2.83-21.05-12.32 0 0 2.82-4.88-1.29-8.22 0 0 7.7 2.31 4.62 8.73 0 0-3.08 9 14.89 9 0 0 8.22-14.89 22.34-12.32 0 0 10.27-13.87-.51-26.7 0 0-9.47-17.13-36.26-5.16 0 .05.06 0 .06 0-8.22 14.64.77 15.15.77 15.15 4.11-11.3 13.09-8 13.09-8-7.19.25-9.76 9-9.76 9 8.73 9.25 19.77 1.29 19.77 1.29 7.19-6.68 2.57-11.81 2.57-11.81 8.21 3.85-.77 13.61-.77 13.61-8.48 10.78-24.13 0-24.13 0-13.87.77-5.91-17.72-5.91-17.72s-30.81-8.22-39 19.52c0 0-26.54 2.55-30.06 33.68zM274.54 259c15 17.33 38.13 6.16 38.13 6.16 12.32 12.33 21.57.77 21.57.77-11.94 7.7-20.41-6.93-20.41-6.93-1.54-10-8.86-8.48-8.86-8.48a5.91 5.91 0 014.62 4.24c3.85 6.55-5 7.7-5 7.7-15.89 4.69-29.07-11.26-30.65-13.27-2.28-5.87-3.62-9.69-.8-15.18s6.42-8.13 12.2-5.43c0 0 6.16-.39 8.86 2.69 0 0 8.47 5 16.95 1.93 0 0 10.63-2.39 20.24 10.6-2.16 3-7.53 4-7.53 4 5.61.93 8.65.16 10.19-.58 2.8 2.71 11.5 10.11 21 7.9a14.05 14.05 0 009.64-3.06c6.46 3.93 13.69 2.1 16.24 1.24l.67-.24.29-.12a2.84 2.84 0 01-.29.12 3.81 3.81 0 01-.67.24c-4 1-11.84-3-13.76-4 1.4-1.86 5.25-6.46 9.83-7.69 0 0 24.44-3.06 15.5-24.78-.06-.16-.1-.26-.1-.26s.06.17.1.26c.75 2 5.1 16.34-17 21.7a26.85 26.85 0 00-12.32 9.24s-12.71 7.7-25.42-5.39c0 0-10.4-17.72-27-14.25 0 0-12.33.77-18.87-3.85 0 0-13.86-1.16-17.33-6.93 0 0-.53-1.24-.08-.14-3-6-5-14.36-1.72-29.78 0 0-.15-3.68 1.39-4.71.11-.07.2-.07.14-.07-1.11 1.16 0-.1 0-.1a18.18 18.18 0 0015.15 8c-6.42-1-12.07-11.81-12.07-11.81a68 68 0 01-7-21.82h.06c5.14-15.66 26.19-13.35 26.19-13.35 14.89 2.06 19.51 20 19.51 20 5.13 4.11 5.39 12.58 5.39 12.58 3.85 11-6.42 16.94-6.42 16.94 11.55-1.8 10-17.71 10-17.71.26-6.16 9.24-4.88 9.24-4.88 15.41-3.6 17.46 12.07 17.46 12.07 1 5.65 1.8 5.9 1.8 5.9 2.82 5.65 8.47 1.8 8.47 1.8 4.11-2.82 9-.51 9-.51 4.62-1.29 4.62 9 4.62 9 5.65-5.9-2.06-12.58-2.06-12.58 8.22-4.88 4.62-12.58 4.62-12.58-2.83 14.89-15.66 11.55-15.66 11.55-4.88 1.8-6.68-1.54-6.68-1.54a16.19 16.19 0 00-8.73-14.12c-9.5-6.93-21.82-2.06-21.82-2.06-8.73-4.88-8.73-18.74-8.73-18.74.26-5.14 10-6.94 10-6.94 5.65.26 11.81-8.47 11.81-8.47 2.31 1.8 9.5 0 9.5 0 5.91-3.6 12.07.26 12.07.26 14.89 2.83 9 16.69 9 16.69-2.57 8.22-17.72 7.71-17.72 7.71-12.07 5.13-22.85-2.82-22.85-2.82 9 12.06 32.61 4.62 32.61 4.62 5.14-3.34 11.55-2.31 11.55-2.31 18.74 1.29 24.65 20.28 24.65 20.28.77-15.66-22.34-24.91-22.34-24.91 11.3-3.08 10.79-16.95 10.79-16.95.4-1.19 4-1.09 5.63-1 0 .11 0-.11 0 0s21.59 2.29 15.42 39.26h-.06c-1.5 3.8-4 10.08-8.54 11.86 0 0 2.12 18.49-6.93 23.5 0 0-17.91 12.9-39.67 4 0 0-11.94-11.94-21.18-13.67 0 0 9.44-9.44 2.89-17.53 0 0 2.7 13.67-10.4 17.91 0 0-16 4-19.64-5a9.7 9.7 0 01-1.73-6.93s1.15-8.28-2.31-13.1a16.85 16.85 0 01-1.35-11.94s-4.43 4.24-1.35 13.86c0 0 2.89 5.78.19 14.06 0 0-.39 4 4.62 9.63 0 0 3.66 4.62 4.62 5.2 0 0 4.62 13.29 17.91 8.86 0 0-11.94-1.35-12.13-9.44a15.64 15.64 0 0013.1-.38s1-2.5 9.05 5.58c0 0 3.66 3.85 10.21 9.63 0 0 4.24 6 15 3.27 0 0 31.2 1.54 40.06-18.87 0 0 4-11.17 2.12-17.52 0 0 6.93-5.59 8.09-9.24 0 0 .56.39 0 0 .22.15 0-.05 0-.05 3.11 2.81 19.7 29-10.77 56.86 0 0 9.24 25.68-31.84 35.95 0 0-14.63 8.35-26.45-1.15 0 0 7.37 10.57 20.37 6.94-7.19 5-21.07 10.15-43.22.37 0 0-35.95 7.19-43.14-13.35"/>
            <path class="cls-2" d="M385.47 132c-1.29-10.29-10.27-17-10.27-17-8-7.19-13.1-3.85-13.1-3.85 16.18 3.59 19.52 21.31 19.52 21.31 2.06 12.07-7.19 13.86-7.19 13.86 3.34-13.09-9.24-17.2-9.24-17.2-6.67-5.14-14.89-2.06-14.89-2.06-6.93 3.6-11 0-11 0-2.57-3.59-.26-8.73-.26-8.73 7.7 2.06 14.12-3.08 14.12-3.08 5.13-3.08 2.83-10 2.83-10-2.31 13.35-16.95 8.22-16.95 8.22-1.8-4.11 3.08-7.19 3.08-7.19 8-4.11 3.85-11 3.85-11a10.38 10.38 0 012.31-9c-5.65.51-5.9 10.78-5.9 10.78a6.85 6.85 0 01-4.88 6.68c-4.88 2.05-2.57 10.52-2.57 10.52-2.31 2.83-.26 11.81-.26 11.81.51 8-9.5 9.5-9.5 9.5-9 1-15.41 8-15.41 8-8.47-7.7-21.82-5.65-21.82-5.65-11.2-1.66-16.7 8.4-18.4 12.33a26.2 26.2 0 011.71-10.54s-8.51-21.33 5.87-29 15.66.26 22.86 12.32c0 0 25.16 2.83 21.05-12.32 0 0-2.82-4.88 1.29-8.22 0 0-7.7 2.31-4.62 8.73 0 0 3.08 9-14.89 9 0 0-8.22-14.89-22.34-12.32 0 0-10.27-13.87.51-26.7 0 0 9.47-17.13 36.26-5.16 0 .05-.06 0-.06 0 8.22 14.64-.77 15.15-.77 15.15-4.11-11.3-13.09-8-13.09-8 7.19.25 9.76 9 9.76 9-8.73 9.25-19.77 1.29-19.77 1.29-7.19-6.68-2.57-11.81-2.57-11.81-8.21 3.85.77 13.61.77 13.61 8.48 10.78 24.13 0 24.13 0 13.87.77 5.91-17.72 5.91-17.72s30.81-8.22 39 19.52c0 0 26.54 2.55 30.06 33.68z"/>
            <path class="cls-1" d="M232.4 179.28l58.66 70.06S348.71 71.49 424.57 17.6c0 0-60 28-142.61 182.16.04 0-3.34 15.24-49.56-20.48z"/>
            <path class="cls-3" d="M110.88 138.72s95.63-10.77 160 189.44l25.7-75.81s-18.94 39.23-54.44-30.27c.01 0-45.54-100.74-131.26-83.36z"/>
            <path fill="none" d="M94.63 0h344.79v344.79H94.63z"/>
            <path class="cls-2" d="M0 381.51a.46.46 0 01.45-.46h6.83a.45.45 0 01.45.46.45.45 0 01-.45.47H.93v5.25h5.55a.46.46 0 010 .93H.93v5.23h6.35a.45.45 0 01.45.47.45.45 0 01-.45.46H.42a.46.46 0 01-.42-.46zM12.28 392.38a.45.45 0 01.64-.06 5 5 0 002.84 1.08 2.8 2.8 0 001.76-.57 1.41 1.41 0 00.7-1.14 1.46 1.46 0 00-.66-1.14 4.61 4.61 0 00-2-.68 5.29 5.29 0 01-2.1-.72 1.94 1.94 0 01-1-1.67 2.3 2.3 0 011-1.82 4 4 0 012.27-.63 5 5 0 012.77 1 .48.48 0 01.13.64.46.46 0 01-.63.13 4.06 4.06 0 00-2.27-.93 2.79 2.79 0 00-1.76.53 1.39 1.39 0 00-.59 1.06 1.12 1.12 0 00.53.93 4.67 4.67 0 001.9.64 6.45 6.45 0 012.25.76 2.32 2.32 0 011 1.9 2.36 2.36 0 01-1.06 1.88 3.79 3.79 0 01-2.31.74 5.64 5.64 0 01-3.35-1.31.43.43 0 01-.06-.62zM24.15 389.83v-4.34a.46.46 0 01.93 0v1.35A4.4 4.4 0 0128.6 385a4.62 4.62 0 010 9.23 4.36 4.36 0 01-3.53-1.82v5.31a.46.46 0 01-.93 0zm.93-.19a3.55 3.55 0 107.09 0 3.55 3.55 0 10-7.09-.15zM37.7 389.69a4.49 4.49 0 019-.34v.08a.43.43 0 01-.45.42h-7.64a3.65 3.65 0 003.6 3.56 3.49 3.49 0 003-1.69.44.44 0 01.61-.15.48.48 0 01.15.64 4.43 4.43 0 01-3.75 2.1 4.57 4.57 0 01-4.52-4.62zm1-.74h7a3.58 3.58 0 00-3.49-3 3.63 3.63 0 00-3.54 3.05zM51.14 389.66a4.68 4.68 0 014.78-4.66 4.78 4.78 0 013 1 .43.43 0 01.06.63.47.47 0 01-.63.08 3.78 3.78 0 10-2.39 6.65 3.91 3.91 0 002.39-.81.47.47 0 01.63.08.45.45 0 01-.09.66 4.79 4.79 0 01-2.92 1 4.68 4.68 0 01-4.83-4.63zM64.54 382.45a.46.46 0 01.93 0v.44a.47.47 0 11-.93 0zm0 3A.45.45 0 0165 385a.45.45 0 01.47.45v8.38a.46.46 0 01-.93 0zM79.53 385.49v8.38a.45.45 0 11-.91 0v-1.38a4.34 4.34 0 01-3.49 1.84 4.65 4.65 0 010-9.29 4.32 4.32 0 013.49 1.82v-1.36a.45.45 0 01.91 0zm-.91 4.19a3.5 3.5 0 10-3.49 3.73 3.63 3.63 0 003.49-3.74zM85.77 381.51a.46.46 0 01.93 0v12.36a.46.46 0 01-.93 0zM92.27 382.45a.46.46 0 01.93 0v.44a.47.47 0 11-.93 0zm0 3a.45.45 0 01.46-.45.45.45 0 01.47.45v8.38a.46.46 0 01-.93 0zM98.83 392.38a.45.45 0 01.64-.06 5 5 0 002.84 1.08 2.8 2.8 0 001.76-.57 1.41 1.41 0 00.7-1.14 1.46 1.46 0 00-.66-1.14 4.61 4.61 0 00-2-.68 5.29 5.29 0 01-2.1-.72 1.94 1.94 0 01-1-1.67 2.3 2.3 0 011-1.82 4 4 0 012.27-.63 5 5 0 012.77 1 .48.48 0 01.13.64.46.46 0 01-.63.13 4.06 4.06 0 00-2.27-.93 2.79 2.79 0 00-1.76.53 1.39 1.39 0 00-.59 1.06 1.12 1.12 0 00.53.93 4.67 4.67 0 001.9.64 6.45 6.45 0 012.25.76 2.32 2.32 0 011 1.9 2.36 2.36 0 01-1.06 1.88 3.79 3.79 0 01-2.31.74 5.64 5.64 0 01-3.36-1.31.43.43 0 01-.05-.62zM114.22 385.49a.49.49 0 01-.46.46h-1.19v6.77a.73.73 0 00.68.68.53.53 0 01.47.47.51.51 0 01-.47.46 1.58 1.58 0 01-1.63-1.61v-6.77h-1.16c-.46 0-.46-.23-.46-.46s0-.45.46-.45h1.16v-3.45a.49.49 0 01.46-.46.51.51 0 01.49.46V385h1.19a.49.49 0 01.46.49zM127.68 385.49v8.38a.46.46 0 11-.91 0v-1.38a4.33 4.33 0 01-3.49 1.84 4.65 4.65 0 010-9.29 4.32 4.32 0 013.49 1.82v-1.36a.46.46 0 01.91 0zm-.91 4.19a3.49 3.49 0 10-3.49 3.73 3.63 3.63 0 003.49-3.74zM140.43 389.69a4.49 4.49 0 019-.34v.08a.43.43 0 01-.45.42h-7.62a3.65 3.65 0 003.6 3.56 3.49 3.49 0 003-1.69.44.44 0 01.61-.15.48.48 0 01.15.64 4.43 4.43 0 01-3.75 2.1 4.57 4.57 0 01-4.54-4.62zm1-.74h7a3.58 3.58 0 00-3.49-3 3.63 3.63 0 00-3.54 3.05zM161.17 388.82a2.86 2.86 0 00-2.86-2.86 2.91 2.91 0 00-2.88 2.86v5.12a.43.43 0 01-.09.21.41.41 0 01-.34.17h-.11a.5.5 0 01-.3-.25.07.07 0 010-.06v-8.51a.45.45 0 11.89 0v.89a3.77 3.77 0 016.65 2.43v5a.45.45 0 11-.91 0zM182.43 391.32a2.39 2.39 0 00-1.08-2 4.24 4.24 0 00-1.54-.66h-3.31v5.25a.46.46 0 01-.93 0v-12.4a.47.47 0 01.42-.46h3.79a3.79 3.79 0 011.59 7.22l.19.09a3.35 3.35 0 011.78 3 5.07 5.07 0 00.17 1.53.69.69 0 00.19.32.5.5 0 01.51.3.52.52 0 01-.3.61h-.23a1.06 1.06 0 01-.85-.61 4.69 4.69 0 01-.4-2.19zm-2.65-9.32h-3.28v5.72h3.35a2.86 2.86 0 00-.08-5.72zM188.52 389.69a4.49 4.49 0 019-.34v.08a.43.43 0 01-.45.42h-7.62a3.65 3.65 0 003.6 3.56 3.49 3.49 0 003-1.69.44.44 0 01.61-.15.48.48 0 01.15.64 4.43 4.43 0 01-3.75 2.1 4.57 4.57 0 01-4.54-4.62zm1-.74h7a3.58 3.58 0 00-3.49-3 3.63 3.63 0 00-3.54 3.05zM209.45 388.69a3 3 0 00-5.89 0V394.08a.43.43 0 01-.28.23h-.09a.52.52 0 01-.36-.15.57.57 0 01-.08-.15.43.43 0 010-.15v-12.35a.46.46 0 01.93 0v4.89a3.84 3.84 0 012.94-1.36 3.7 3.7 0 013.89 3.66v5.17a.46.46 0 01-.93 0zM224.68 385.49v8.38a.46.46 0 11-.91 0v-1.38a4.33 4.33 0 01-3.49 1.84 4.65 4.65 0 010-9.29 4.32 4.32 0 013.49 1.82v-1.36a.46.46 0 01.91 0zm-.91 4.19a3.49 3.49 0 10-3.49 3.73 3.63 3.63 0 003.49-3.74zM230.52 389.88v-8.38a.46.46 0 01.93 0v5.34A4.43 4.43 0 01235 385a4.65 4.65 0 010 9.29 4.42 4.42 0 01-3.56-1.8v1.35a.46.46 0 01-.93 0zm.93-.19a3.66 3.66 0 100-.15zM244.95 382.45a.46.46 0 01.93 0v.44a.47.47 0 11-.93 0zm0 3a.45.45 0 01.46-.45.45.45 0 01.47.45v8.38a.46.46 0 01-.93 0zM251.88 381.51a.46.46 0 01.93 0v12.36a.46.46 0 01-.93 0zM258.39 382.45a.46.46 0 01.93 0v.44a.47.47 0 11-.93 0zm0 3a.45.45 0 01.46-.45.45.45 0 01.47.45v8.38a.46.46 0 01-.93 0zM268.83 385.49a.49.49 0 01-.46.46h-1.19v6.77a.73.73 0 00.68.68.53.53 0 01.47.47.51.51 0 01-.47.46 1.58 1.58 0 01-1.63-1.61v-6.77h-1.16c-.46 0-.46-.23-.46-.46s0-.45.46-.45h1.16v-3.45a.49.49 0 01.46-.46.51.51 0 01.49.46V385h1.19a.49.49 0 01.46.49zM282.29 385.49v8.38a.46.46 0 11-.91 0v-1.38a4.33 4.33 0 01-3.49 1.84 4.65 4.65 0 010-9.29 4.32 4.32 0 013.49 1.82v-1.36a.46.46 0 01.91 0zm-.91 4.19a3.49 3.49 0 10-3.49 3.73 3.63 3.63 0 003.49-3.74zM287.46 389.66a4.68 4.68 0 014.78-4.62 4.78 4.78 0 013 1 .43.43 0 01.06.63.47.47 0 01-.63.08 3.78 3.78 0 10-2.39 6.65 3.91 3.91 0 002.39-.81.47.47 0 01.63.08.45.45 0 01-.09.66 4.79 4.79 0 01-2.92 1 4.68 4.68 0 01-4.83-4.67zM300.86 382.45a.46.46 0 01.93 0v.44a.47.47 0 11-.93 0zm0 3a.45.45 0 01.46-.45.45.45 0 01.47.45v8.38a.46.46 0 01-.93 0zM307.4 389.67a4.4 4.4 0 114.4 4.64 4.55 4.55 0 01-4.4-4.64zm.91 0a3.5 3.5 0 103.49-3.75 3.63 3.63 0 00-3.49 3.75zm2.48-6.16a.75.75 0 00.61-.25l1.52-1.46a.56.56 0 00.21-.34c0-.19-.44-.44-.8-.44a.61.61 0 00-.53.34l-1.18 1.76a.4.4 0 00-.08.21c.01.11.12.19.26.19zM328.73 388.82a2.86 2.86 0 00-2.86-2.86 2.91 2.91 0 00-2.88 2.86v5.12a.43.43 0 01-.09.21.41.41 0 01-.34.17h-.11a.5.5 0 01-.3-.25.07.07 0 010-.06v-8.51a.45.45 0 11.89 0v.89a3.77 3.77 0 016.65 2.43v5a.45.45 0 11-.91 0zM344.36 383v10.86a.45.45 0 11-.91 0V381.7a.46.46 0 01.17-.51.47.47 0 01.64.11l8 11.14v-10.8a.46.46 0 01.93 0v12.22a.47.47 0 01-.47.46.44.44 0 01-.36-.17s-.06 0-.08-.08zM359 389.69a4.49 4.49 0 019-.34v.08a.43.43 0 01-.45.42h-7.62a3.65 3.65 0 003.6 3.56 3.49 3.49 0 003-1.69.44.44 0 01.61-.15.48.48 0 01.15.64 4.43 4.43 0 01-3.75 2.1 4.57 4.57 0 01-4.54-4.62zm1-.74h7a3.58 3.58 0 00-3.49-3A3.63 3.63 0 00360 389zM372.95 385.47a.45.45 0 11.91 0v5.06a2.86 2.86 0 105.72 0v-5.06a.46.46 0 01.42-.47.45.45 0 01.47.46v5.06a3.78 3.78 0 11-7.56 0zM386.65 385.5a.45.45 0 01.47-.45.45.45 0 01.44.45v2a1.4 1.4 0 01.13-.23 4.48 4.48 0 013.71-2.27.45.45 0 01.46.45.46.46 0 01-.46.46 3.35 3.35 0 00-2.69 1.52 8.35 8.35 0 00-1.12 2.16.29.29 0 000 .15v4.07a.45.45 0 01-.44.46.45.45 0 01-.47-.46zM400.35 385a4.65 4.65 0 11-4.4 4.64 4.54 4.54 0 014.4-4.64zm0 8.38a3.75 3.75 0 10-3.49-3.73 3.63 3.63 0 003.49 3.76zM410.14 389.83v-4.34a.46.46 0 01.93 0v1.35a4.4 4.4 0 013.52-1.8 4.62 4.62 0 010 9.23 4.36 4.36 0 01-3.52-1.82v5.31a.46.46 0 01-.93 0zm.93-.19a3.55 3.55 0 107.09 0 3.55 3.55 0 10-7.09-.15zM423.9 392.38a.45.45 0 01.64-.06 5 5 0 002.84 1.08 2.8 2.8 0 001.76-.57 1.41 1.41 0 00.7-1.14 1.46 1.46 0 00-.66-1.14 4.61 4.61 0 00-2-.68 5.29 5.29 0 01-2.1-.72 1.94 1.94 0 01-1-1.67 2.3 2.3 0 011-1.82 4 4 0 012.27-.63 5 5 0 012.77 1 .48.48 0 01.13.64.46.46 0 01-.63.13 4.06 4.06 0 00-2.27-.93 2.79 2.79 0 00-1.76.53 1.39 1.39 0 00-.59 1.06 1.12 1.12 0 00.53.93 4.67 4.67 0 001.9.64 6.45 6.45 0 012.25.76 2.32 2.32 0 011 1.9 2.36 2.36 0 01-1.06 1.88 3.79 3.79 0 01-2.31.74A5.64 5.64 0 01424 393a.43.43 0 01-.1-.62zM435.78 382.45a.46.46 0 01.93 0v.44a.47.47 0 11-.93 0zm0 3a.45.45 0 01.46-.45.45.45 0 01.47.45v8.38a.46.46 0 01-.93 0zM442.32 389.66a4.68 4.68 0 014.78-4.66 4.78 4.78 0 013 1 .43.43 0 01.06.63.47.47 0 01-.63.08 3.78 3.78 0 10-2.39 6.65 3.91 3.91 0 002.39-.81.47.47 0 01.63.08.45.45 0 01-.09.66 4.79 4.79 0 01-2.92 1 4.68 4.68 0 01-4.83-4.63zM459.38 385a4.65 4.65 0 11-4.4 4.64 4.54 4.54 0 014.4-4.64zm0 8.38a3.75 3.75 0 10-3.49-3.73 3.63 3.63 0 003.49 3.76zM469.29 381.51a.46.46 0 01.93 0v12.36a.46.46 0 01-.93 0zM475.11 389.67a4.4 4.4 0 114.4 4.64 4.55 4.55 0 01-4.4-4.64zm.91 0a3.5 3.5 0 103.49-3.75 3.63 3.63 0 00-3.51 3.75zm2.48-6.16a.75.75 0 00.61-.25l1.52-1.46a.56.56 0 00.21-.34c0-.19-.44-.44-.8-.44a.61.61 0 00-.53.34l-1.18 1.76a.4.4 0 00-.08.21c.01.11.12.19.25.19zM497.91 393.58a4.36 4.36 0 01-4.38 4.36 4.8 4.8 0 01-1.93-.44.49.49 0 01-.19-.61.42.42 0 01.61-.21 3.36 3.36 0 001.52.34 3.44 3.44 0 003.47-3.45v-1.14a4.21 4.21 0 01-3.47 1.82 4.62 4.62 0 010-9.23 4.25 4.25 0 013.47 1.82v-1.36a.47.47 0 01.47-.45.46.46 0 01.44.45zm-.91-3.94a3.47 3.47 0 10-3.47 3.73 3.57 3.57 0 003.47-3.73zM504.23 382.45a.46.46 0 01.93 0v.44a.47.47 0 11-.93 0zm0 3a.45.45 0 01.46-.45.45.45 0 01.47.45v8.38a.46.46 0 01-.93 0zM510.77 389.66a4.68 4.68 0 014.78-4.62 4.78 4.78 0 013 1 .43.43 0 01.06.63.47.47 0 01-.63.08 3.78 3.78 0 10-2.39 6.65 3.91 3.91 0 002.39-.81.47.47 0 01.63.08.45.45 0 01-.09.66 4.79 4.79 0 01-2.92 1 4.68 4.68 0 01-4.83-4.67zM531.94 385.49v8.38a.45.45 0 11-.91 0v-1.38a4.34 4.34 0 01-3.49 1.84 4.65 4.65 0 010-9.29 4.32 4.32 0 013.49 1.82v-1.36a.45.45 0 01.91 0zm-.91 4.19a3.5 3.5 0 10-3.49 3.73 3.63 3.63 0 003.46-3.74zM122 408.21a.44.44 0 01.44-.44.45.45 0 01.47.44v5a2.84 2.84 0 002.84 2.86 2.88 2.88 0 002.88-2.86v-5a.33.33 0 01.08-.23v-.06a.34.34 0 01.17-.11H129.05a1.15 1.15 0 01.23.09.46.46 0 01.11.15.37.37 0 01.06.19v8.11a4.37 4.37 0 01-4.42 4.36 4.65 4.65 0 01-1.91-.44.47.47 0 01-.19-.61.49.49 0 01.59-.23 3.43 3.43 0 001.52.36 3.49 3.49 0 003.51-3.45v-.61a3.84 3.84 0 01-2.88 1.33 3.79 3.79 0 01-3.75-3.79zM143.65 404.25a.46.46 0 01.45-.46h6.82a.45.45 0 01.45.46.45.45 0 01-.45.47h-6.35V410h5.55a.46.46 0 010 .93h-5.55v5.23h6.35a.45.45 0 01.45.47.45.45 0 01-.45.45h-6.86a.46.46 0 01-.42-.45zM155.93 415.13a.45.45 0 01.64-.06 5 5 0 002.84 1.08 2.8 2.8 0 001.76-.57 1.41 1.41 0 00.7-1.14 1.46 1.46 0 00-.66-1.14 4.61 4.61 0 00-2-.68 5.29 5.29 0 01-2.1-.72 1.94 1.94 0 01-1-1.67 2.3 2.3 0 011-1.82 4 4 0 012.27-.63 5 5 0 012.77 1 .48.48 0 01.13.64.46.46 0 01-.63.13 4.06 4.06 0 00-2.27-.93 2.79 2.79 0 00-1.76.53 1.39 1.39 0 00-.59 1.06 1.12 1.12 0 00.53.93 4.68 4.68 0 001.9.64 6.45 6.45 0 012.25.76 2.32 2.32 0 011 1.9 2.36 2.36 0 01-1.06 1.88 3.79 3.79 0 01-2.31.74 5.64 5.64 0 01-3.43-1.33.43.43 0 01.02-.6zM171.32 408.23a.49.49 0 01-.46.46h-1.19v6.77a.73.73 0 00.68.68.53.53 0 01.47.47.51.51 0 01-.47.45 1.58 1.58 0 01-1.63-1.61v-6.77h-1.16c-.46 0-.46-.23-.46-.46s0-.45.46-.45h1.16v-3.45a.49.49 0 01.46-.45.51.51 0 01.49.45v3.45h1.19a.49.49 0 01.46.46zM177.57 405.2a.46.46 0 01.93 0v.44a.47.47 0 11-.93 0zm0 3a.45.45 0 01.46-.45.45.45 0 01.47.45v8.38a.46.46 0 01-.93 0zM198.06 411.57a2.87 2.87 0 10-5.74 0v5.12a.48.48 0 01-.23.25.51.51 0 01-.23.06h-.09s-.08 0-.11-.06 0 0-.06 0l-.06-.06a.07.07 0 000-.06v-5.15a2.86 2.86 0 10-5.72 0v5.06a.41.41 0 01-.21.36.22.22 0 01-.11.06h-.19a.49.49 0 01-.38-.34v-8.49a.44.44 0 01.44-.44.43.43 0 01.46.44v.89a3.71 3.71 0 012.86-1.33 3.77 3.77 0 013.32 2 3.84 3.84 0 013.34-2 3.77 3.77 0 013.77 3.77v5.06a.45.45 0 01-.89 0zM204.51 408.21a.45.45 0 11.91 0v5.06a2.86 2.86 0 105.72 0v-5.06a.46.46 0 01.45-.46.45.45 0 01.47.46v5.06a3.78 3.78 0 11-7.56 0zM217.76 404.25a.46.46 0 01.93 0v12.36a.46.46 0 01-.93 0zM232 408.23v8.38a.45.45 0 01-.91 0v-1.38a4.34 4.34 0 01-3.49 1.84 4.65 4.65 0 010-9.29 4.32 4.32 0 013.49 1.82v-1.36a.45.45 0 11.91 0zm-.91 4.19a3.5 3.5 0 10-3.49 3.73 3.63 3.63 0 003.52-3.73zM237.21 412.4a4.68 4.68 0 014.78-4.62 4.78 4.78 0 013 1 .43.43 0 01.06.63.47.47 0 01-.63.08 3.78 3.78 0 10-2.39 6.65 3.91 3.91 0 002.39-.81.47.47 0 01.63.08.45.45 0 01-.09.66 4.79 4.79 0 01-2.92 1 4.68 4.68 0 01-4.83-4.67zM250.61 405.2a.46.46 0 01.93 0v.44a.47.47 0 11-.93 0zm0 3a.45.45 0 01.46-.45.45.45 0 01.47.45v8.38a.46.46 0 01-.93 0zM257.15 412.42a4.4 4.4 0 114.4 4.64 4.55 4.55 0 01-4.4-4.64zm.91 0a3.5 3.5 0 103.49-3.75 3.63 3.63 0 00-3.49 3.75zm2.48-6.16a.75.75 0 00.61-.25l1.52-1.46a.56.56 0 00.21-.34c0-.19-.44-.44-.8-.44a.61.61 0 00-.53.34l-1.18 1.76a.4.4 0 00-.08.21c0 .11.12.18.25.18zM278.47 411.57a2.86 2.86 0 00-2.86-2.86 2.91 2.91 0 00-2.88 2.86v5.12a.43.43 0 01-.09.21.41.41 0 01-.34.17h-.11a.5.5 0 01-.3-.25.07.07 0 010-.06v-8.47a.45.45 0 11.89 0v.89a3.77 3.77 0 016.65 2.43v5a.45.45 0 01-.91 0zM299.45 403.61a7 7 0 014.28 1.46.46.46 0 01.08.66.44.44 0 01-.64.09 6 6 0 00-3.71-1.29 5.8 5.8 0 100 11.6 5.64 5.64 0 003.68-1.29.46.46 0 01.66.11.45.45 0 01-.06.66 7 7 0 01-4.28 1.44 6.73 6.73 0 110-13.46zM313.21 407.78a4.65 4.65 0 11-4.4 4.64 4.54 4.54 0 014.4-4.64zm0 8.38a3.75 3.75 0 10-3.49-3.73 3.63 3.63 0 003.49 3.72zM331.1 416.32a4.36 4.36 0 01-4.38 4.36 4.8 4.8 0 01-1.93-.44.49.49 0 01-.19-.61.42.42 0 01.61-.21 3.36 3.36 0 001.52.34 3.44 3.44 0 003.47-3.45v-1.14a4.21 4.21 0 01-3.47 1.82 4.62 4.62 0 010-9.23 4.25 4.25 0 013.47 1.82v-1.36a.47.47 0 01.47-.45.46.46 0 01.44.45zm-.91-3.94a3.47 3.47 0 10-3.47 3.73 3.57 3.57 0 003.47-3.73zM344 411.57a2.86 2.86 0 00-2.86-2.86 2.91 2.91 0 00-2.88 2.86v5.12a.43.43 0 01-.09.21.41.41 0 01-.34.17h-.11a.5.5 0 01-.3-.25.07.07 0 010-.06v-8.47a.45.45 0 11.89 0v.89a3.77 3.77 0 016.65 2.43v5a.45.45 0 01-.91 0zM350.93 405.2a.46.46 0 01.93 0v.44a.47.47 0 11-.93 0zm0 3a.45.45 0 01.46-.45.45.45 0 01.47.45v8.38a.46.46 0 01-.93 0zM361.38 408.23a.49.49 0 01-.46.46h-1.19v6.77a.73.73 0 00.68.68.53.53 0 01.47.47.51.51 0 01-.47.45 1.58 1.58 0 01-1.63-1.61v-6.77h-1.16c-.46 0-.46-.23-.46-.46s0-.45.46-.45h1.16v-3.45a.49.49 0 01.46-.45.51.51 0 01.49.45v3.45h1.19a.49.49 0 01.46.46zM367.63 405.2a.46.46 0 01.93 0v.44a.47.47 0 11-.93 0zm0 3a.45.45 0 01.46-.45.45.45 0 01.47.45v8.38a.46.46 0 01-.93 0zM377.81 417a.6.6 0 01-.15-.21l-3.49-8.3a.46.46 0 01.23-.59.45.45 0 01.59.25l3.09 7.32 3.09-7.32a.44.44 0 11.81.34l-3.47 8.23a.64.64 0 01-.11.23.4.4 0 01-.3.13.41.41 0 01-.15 0s-.1-.08-.14-.08zM395.08 408.23v8.38a.46.46 0 01-.91 0v-1.38a4.33 4.33 0 01-3.49 1.84 4.65 4.65 0 010-9.29 4.32 4.32 0 013.49 1.82v-1.36a.46.46 0 01.91 0zm-.91 4.19a3.49 3.49 0 10-3.49 3.73 3.63 3.63 0 003.49-3.73zM401.65 415.17a.95.95 0 11-.95.95.94.94 0 01.95-.95z"/>
        </g>
    </g>
</svg>